# xmcd
#
# Track frame offsets:
#	150
#	15906
#	39498
#	55694
#	67759
#	82737
#	94491
#	112390
#	130500
#	150006
#	161775
#	180730
#	206953
#	225241
#	239989
#
# Disc length: 3408 seconds
#
# Revision: 0
# Processed by: cddbd v1.5.2PL0 Copyright (c) Steve Scherf et al.
# Submitted via: dBpowerAMP V4.0
#
DISCID=b80d4e0f
DTITLE=Washboard Chaz Blues Trio - Hard Year Blues
DYEAR=2006
DGENRE=Blues
TTITLE0=Wrong Woman
TTITLE1=Future Blues
TTITLE2=Going Back to Arkansas
TTITLE3=Long Gone From Bowling Green
TTITLE4=I Want You to Know
TTITLE5=Whose Muddy Shoes
TTITLE6=Corrina
TTITLE7=Drop Down Mama
TTITLE8=Eagle Riding Papa
TTITLE9=Stuff You Got to Watch
TTITLE10=He Calls That Religion
TTITLE11=Mean Ol' Frisco
TTITLE12=I've Been Treated Wrong
TTITLE13=Let's Runaway
TTITLE14=Baby, Who's Been Here
EXTD=This is a New Orleans-based wasgboard blues band. Incredible stuff.
EXTT0=
EXTT1=
EXTT2=
EXTT3=
EXTT4=
EXTT5=
EXTT6=
EXTT7=
EXTT8=
EXTT9=
EXTT10=
EXTT11=
EXTT12=
EXTT13=
EXTT14=
PLAYORDER=
